<svg xmlns="http://www.w3.org/2000/svg" viewBox="0 0 823.31 718.4"><polyline points="731.39 326.86 586.01 577.46 268.83 576.79 124.49 325.59" style="fill:none;stroke:#231f20;stroke-linecap:round;stroke-miterlimit:10"/><polyline points="268.83 576.79 124.49 325.59 34.1 168.27 124.82 168.46 731.72 169.73 822.44 169.92 731.39 326.86 586.01 577.46" style="fill:#231f20;stroke:#231f20;stroke-linecap:round;stroke-miterlimit:10"/><line x1="287.92" y1="573.28" x2="263.09" y2="652.74" style="fill:none;stroke:#231f20;stroke-linecap:round;stroke-miterlimit:10;stroke-width:59.8574423789978px"/><circle cx="258.76" cy="666.58" r="50.89" style="fill:#231f20;stroke:#231f20;stroke-linecap:round;stroke-miterlimit:10;stroke-width:1.863743677812531px"/><line x1="551.22" y1="570.56" x2="595.92" y2="640.79" style="fill:none;stroke:#231f20;stroke-linecap:round;stroke-miterlimit:10;stroke-width:59.8574423789978px"/><circle cx="603.71" cy="653.02" r="50.89" style="fill:#231f20;stroke:#231f20;stroke-linecap:round;stroke-miterlimit:10;stroke-width:1.863743677812531px"/><path d="M107.53,136.22H251.05c-.54,1.93-.94,7.75-1.25,15.92-1.31,35.33-.75,114.71-.75,114.71v-74" transform="translate(-107.53 -98.57)" style="fill:none;stroke:#231f20;stroke-linejoin:round;stroke-width:75.28747514075803px"/><path d="M113.28,113.23" transform="translate(-107.53 -98.57)" style="fill:none;stroke:#231f20;stroke-linejoin:round;stroke-width:71.03408813476562px"/></svg>