<svg xmlns="http://www.w3.org/2000/svg" viewBox="0 0 591.36 529.18"><path d="M412,192.8c13.66,4.74,56.68,61,56.68,61,24.42-54.92,81.27-77.11,138.63-75.75,56,0,103.8,54.72,103.8,54.72s42.34,46.81,37.56,56.31c1.71,2.94,9.48,33.24,9.48,36.63s.08,48.17-13.58,101.09-94.24,134.32-94.24,134.32-30,29.85-181.65,137.12c-6-1.14,5.34,11.07-128.38-88.27-9.36-9-59.41-48.17-84-80.73-33.46-29.85-71-116.69-71-116.69S165.43,359,172,328.48c0,0-3.12-44.78,49.47-101.76S356,157.52,412,192.8Z" transform="translate(-168.69 -171.05)" style="fill:#231f20;stroke:#231f20;stroke-linejoin:round;stroke-width:3.8948159799848656px"/><path d="M422.21,254.35c10.85,3.54,45,45.57,45,45.57,19.39-41,64.55-57.56,110.12-56.54,44.48,0,82.45,40.84,82.45,40.84s33.64,34.94,29.84,42c1.36,2.19,7.53,24.81,7.53,27.34A303.38,303.38,0,0,1,686.39,429c-10.84,39.5-74.86,100.26-74.86,100.26s-23.86,22.27-144.29,102.33c-4.78-.85,4.23,8.26-102-65.88-7.43-6.71-47.19-36-66.72-60.25C272,483.21,242.11,418.4,242.11,418.4s-15.73-40-10.54-62.79c0,0-2.48-33.41,39.29-75.95S377.73,228,422.21,254.35Z" transform="translate(-168.69 -171.05)" style="fill:#fff;stroke:#231f20;stroke-linejoin:round;stroke-width:2.9989523397688544px"/></svg>